<svg id="Layer_1" data-name="Layer 1" xmlns="http://www.w3.org/2000/svg" viewBox="0 0 800 800"><defs><style>.cls-1{fill:#fe482b;}</style></defs><path class="cls-1" d="M427-7C206.06-7,27,172.06,27,393S206.06,793,427,793,827,613.94,827,393,647.94-7,427-7ZM315.13,560.34h-78V310.81h78ZM274,279.56h-.62c-28.28,0-46.57-19.06-46.57-43.28,0-24.69,18.91-43.28,47.66-43.28s46.41,18.59,47,43.28C321.69,260.34,303.41,279.56,274,279.56ZM627,560.34H538.56V431.28c0-33.75-13.75-56.87-44.22-56.87-23.28,0-36.25,15.62-42.18,30.62-2.19,5.31-1.88,12.81-1.88,20.47V560.34H362.63s1.09-228.75,0-249.53h87.65V350c5.16-17.19,33.13-41.56,77.81-41.56,55.47,0,98.91,35.94,98.91,113.12Z" transform="translate(-27 7)"/></svg>