<svg id="Layer_1" data-name="Layer 1" xmlns="http://www.w3.org/2000/svg" viewBox="0 0 318.79 318.79"><defs><style>.cls-1{fill:#fe482b;fill-rule:evenodd;}</style></defs><g id="Page-1"><g id="Dribbble-Light-Preview"><g id="icons"><path id="github-_142_" data-name="github-[#142]" class="cls-1" d="M148.26-29.81c88,0,159.39,73.16,159.39,163.42,0,72.2-45.62,133.44-108.91,155.07-8.09,1.61-11-3.49-11-7.85,0-5.39.19-23,.19-44.85,0-15.23-5.1-25.18-10.83-30.26,35.5-4,72.8-17.87,72.8-80.64,0-17.84-6.18-32.41-16.42-43.86,1.66-4.13,7.13-20.75-1.56-43.26,0,0-13.36-4.38-43.79,16.76a147.55,147.55,0,0,0-79.82,0C77.9,33.58,64.51,38,64.51,38,55.85,60.47,61.32,77.09,63,81.22c-10.18,11.45-16.42,26-16.42,43.86,0,62.62,37.22,76.64,72.63,80.78-4.56,4.08-8.69,11.28-10.13,21.84-9.08,4.18-32.16,11.41-46.38-13.57,0,0-8.43-15.71-24.44-16.85,0,0-15.54-.21-1.08,9.93,0,0,10.44,5,17.69,23.91,0,0,9.36,29.17,53.7,19.29.08,13.66.23,26.54.23,30.42,0,4.32-2.94,9.38-10.89,7.86-63.34-21.6-109-82.86-109-155.08,0-90.26,71.38-163.42,159.4-163.42" transform="translate(11.14 29.81)"/></g></g></g></svg>